<?xml version="1.0" standalone="no"?><!DOCTYPE svg PUBLIC "-//W3C//DTD SVG 1.1//EN" "http://www.w3.org/Graphics/SVG/1.1/DTD/svg11.dtd"><svg t="1543798611389" class="icon" style="" viewBox="0 0 1024 1024" version="1.1" xmlns="http://www.w3.org/2000/svg" p-id="2415" xmlns:xlink="http://www.w3.org/1999/xlink" width="16" height="16"><defs><style type="text/css"></style></defs><path d="M246.862807 258.925668a192.254174 192.254174 0 1 1 192.254173 192.586971 193.764559 193.764559 0 0 1-192.254173-192.586971zM123.139182 946.048741a57.573853 57.573853 0 0 1-58.085848-58.188248 374.934038 374.934038 0 0 1 337.455994-371.196473h40.089219c43.519587-3.481567 105.138201-14.540662 137.649893-43.519587l14.515062-11.059095A258.96714 258.96714 0 0 0 431.565052 0.009728a258.864741 258.864741 0 0 0-250.340022 258.91594 262.06471 262.06471 0 0 0 98.149468 203.646066l17.91983 11.059095-17.91983 6.988733A438.063038 438.063038 0 0 0 0.004352 887.860493 122.341238 122.341238 0 0 0 123.727977 1011.200122h330.49286a31.897297 31.897297 0 0 0 29.030124-32.588491 29.183723 29.183723 0 0 0-29.030124-32.58849H123.139182z m838.699233-145.457819a107.698177 107.698177 0 0 0-94.719101 109.387761 76.978469 76.978469 0 0 0 7.551929 32.588491l-47.052353 25.599756-17.91983-17.919829a107.851775 107.851775 0 0 0-61.439416-22.11819 115.378104 115.378104 0 0 0-61.439417 22.11819c-7.551928 7.679927-14.515062 11.059095-17.91983 17.919829l-43.519586-25.599756a92.59432 92.59432 0 0 0 7.551928-32.588491 110.232553 110.232553 0 0 0-94.7191-109.387761c0-7.679927-3.481567-22.11819-3.481567-36.658851 0-11.059095 3.481567-25.599757 3.481567-36.658852a107.698177 107.698177 0 0 0 94.7191-109.387761 76.952869 76.952869 0 0 0-7.551928-32.58849l47.052353-25.599757a81.330427 81.330427 0 0 0 17.91983 14.540662 107.083783 107.083783 0 0 0 58.085848 22.11819 105.496598 105.496598 0 0 0 58.085848-22.11819c7.551928-7.679927 14.515062-11.059095 17.91983-14.540662l47.052353 25.599757a92.59432 92.59432 0 0 0-7.551928 32.58849 110.232553 110.232553 0 0 0 94.7191 109.387761c0 7.679927 3.481567 22.11819 3.481567 36.658852a110.923746 110.923746 0 0 1-0.307197 36.658851z m51.199513-90.751137a38.041239 38.041239 0 0 0-32.56289-32.588491h-3.481567a57.573853 57.573853 0 0 1-58.085849-58.188247c0-7.679927 3.481567-17.91983 3.481567-22.11819a44.031582 44.031582 0 0 0-14.515062-50.610719L842.236351 509.675286h-17.91983a38.194837 38.194837 0 0 0-32.537291 14.540662 86.450379 86.450379 0 0 1-43.519586 25.599757c-14.515062 0-36.018858-17.91983-47.052353-25.599757a45.029972 45.029972 0 0 0-32.537291-14.540662c-7.551928 0-11.033495 0-14.515062 3.481567l-69.119344 36.658852a44.876374 44.876374 0 0 0-14.515062 51.199513 84.479197 84.479197 0 0 1 3.481567 22.11819 57.573853 57.573853 0 0 1-58.085848 58.188247h-3.481567a38.041239 38.041239 0 0 0-32.537291 32.588491 306.941084 306.941084 0 0 0-7.551928 54.68108 146.814605 146.814605 0 0 0 7.551928 54.681081 38.041239 38.041239 0 0 0 32.537291 32.58849h3.481567a57.573853 57.573853 0 0 1 57.932249 58.060249c0 7.679927-3.481567 17.91983-3.481566 22.11819a45.132371 45.132371 0 0 0 14.515062 51.199513L650.519772 1024a34.354874 34.354874 0 0 1 17.91983-3.481567 38.194837 38.194837 0 0 0 32.537291-14.540662c7.551928-7.679927 29.030124-29.081324 47.052353-29.081324a78.770452 78.770452 0 0 1 47.129152 29.183723 45.029972 45.029972 0 0 0 32.537291 14.540662 32.358093 32.358093 0 0 0 17.91983-3.481567L911.355694 980.480413a44.876374 44.876374 0 0 0 14.515062-51.199513 84.479197 84.479197 0 0 1-3.481567-22.11819 57.573853 57.573853 0 0 1 58.085849-58.290646h3.481566a38.041239 38.041239 0 0 0 32.537291-32.588491A256.586362 256.586362 0 0 0 1023.994624 761.602493a215.037957 215.037957 0 0 1-11.033495-51.788308zM748.106045 811.522019a47.129152 47.129152 0 1 1 47.052353-47.129153 48.025144 48.025144 0 0 1-47.052353 47.129153z m17.91983-145.457819a99.506255 99.506255 0 0 0-116.069298 119.858062 101.835833 101.835833 0 0 0 80.152839 80.280837 98.328666 98.328666 0 0 0 116.146097-116.120497 100.171848 100.171848 0 0 0-80.152839-83.890403z" p-id="2416" fill="#409eff"></path></svg>