<?xml version="1.0" standalone="no"?><!DOCTYPE svg PUBLIC "-//W3C//DTD SVG 1.1//EN" "http://www.w3.org/Graphics/SVG/1.1/DTD/svg11.dtd"><svg t="1545121235095" class="icon" style="" viewBox="0 0 1024 1024" version="1.1" xmlns="http://www.w3.org/2000/svg" p-id="2993" xmlns:xlink="http://www.w3.org/1999/xlink" width="16" height="16"><defs><style type="text/css"></style></defs><path d="M736.6 175.4h133.3c50 0 88.9 33.3 88.9 77.7V864c0 44.4-38.9 77.7-88.9 77.7H159.1c-50 0-88.9-33.3-88.9-77.7V253.2c0-44.4 38.9-77.7 88.9-77.7h133.3v-61.1c0-16.7 11.1-33.3 33.3-33.3 16.7 0 33.3 11.1 33.3 33.3v61.1h316.6v-61.1c0-16.7 11.1-33.3 33.3-33.3 16.7 0 33.3 11.1 33.3 33.3v61.1h-5.6z m0 61.1v61.1c0 16.7-11.1 33.3-33.3 33.3-16.7 0-33.3-11.1-33.3-33.3v-61.1H353.4v61.1c0 16.7-11.1 33.3-33.3 33.3-16.7 0-33.3-11.1-33.3-33.3v-61.1H170.2c-27.8 0-44.4 11.1-44.4 38.9v566.5c0 16.7 16.7 33.3 44.4 33.3h677.5c27.8 0 44.4-11.1 44.4-38.9V275.4c-5.6-27.8-27.8-38.9-50-38.9H736.6zM309 430.9h411c16.7 0 33.3 11.1 33.3 33.3 0 22.2-11.1 33.3-33.3 33.3H309c-16.7 0-33.3-11.1-33.3-33.3 0-22.2 16.6-33.3 33.3-33.3z m0 188.8h411c16.7 0 33.3 11.1 33.3 33.3 0 16.7-11.1 33.3-33.3 33.3H309c-16.7 0-33.3-11.1-33.3-33.3 5.5-22.2 16.6-33.3 33.3-33.3z m0 0" p-id="2994" fill="#bfbfbf"></path></svg>