<?xml version="1.0" standalone="no"?>
<!DOCTYPE svg PUBLIC "-//W3C//DTD SVG 1.1//EN" "http://www.w3.org/Graphics/SVG/1.1/DTD/svg11.dtd">
<svg class="" data-icon="default" width="1em" height="1em" fill="currentColor" aria-hidden="true" viewBox="0 0 1024 1024">
  <path d="M817.734728 356.951715c-4.724605 0.454348-11.746532 3.377934-15.784498 0-7.411807 16.494673-30.381961 6.509251-47.242977 11.787464-6.668886 2.031263-7.003508 5.846148-14.33959 8.788154-7.262404 1.577938-5.964852-5.674233-8.558933-8.788154-95.91142 2.430352-190.783161-5.219885-280.748149-1.500167-9.411347 5.52483-4.668323 25.532513-18.637476 26.424836-2.444679-2.372024-5.205559-4.460592-10.003841-4.422729-1.556449-5.998621 1.871627-13.857613-2.889817-19.077497-25.678846 6.758937-62.693878 0.115634-94.522794 7.364735-6.03853 1.385557-10.411117 6.359848-15.746636 8.789177-30.494525-10.289344-93.41046 9.985422-121.755018-11.731182-4.353145-3.320629-12.783141-13.401218-12.894681-22.00006-0.147356-11.334139 13.0799-17.293875 20.027126-27.92398 1.166569-1.688455 2.908236-8.485255 4.316306-10.289344 3.89061-4.915963 9.521864-7.895831 14.33959-13.211906 40.202631-44.36237 92.520183-91.552136 143.208633-129.10031 36.274158-26.878161 72.993454-48.594765 106.008382-77.809133 12.301164-10.876722 24.677029-20.063965 37.239136-29.347398 14.283308 1.538029 19.173688 12.661368 38.681998 8.788154 43.797505 31.491225 89.927125 68.546166 133.204791 108.637256 51.391461 47.552016 97.448426 89.483011 138.910747 140.888797C819.513234 334.304925 827.387575 343.890234 817.734728 356.951715zM502.602468 105.983823c2.149966 6.149047 11.634991 4.725628 12.892635 11.769045-15.839757 27.675316-26.121937 63.685461-35.830043 98.31005-8.53949 30.712489-24.12035 60.761875-25.7515 95.386464 9.912767 1.196245 14.468526 1.594311 27.234271 1.480724-13.246699-12.169157-9.18929-28.055986-4.335748-45.50131 9.744945-34.776038 29.232788-91.89392 38.681998-126.214587 5.115508-18.488073 17.933441-32.041764 1.445932-44.019563C511.790734 99.776448 506.955612 102.604866 502.602468 105.983823zM494.042511 113.330138c-25.676799 56.491619-50.001811 121.867582-63.044872 186.388061 16.766872-7.78122 18.600637-31.984459 25.770943-55.730279 14.19121-46.88789 28.048823-88.878237 44.427862-130.657782-1.89107 0-1.334391-2.582825-2.889817-2.922563C497.96996 112.494097 495.172241 112.096031 494.042511 113.330138zM551.327192 123.617435c-1.38965 6.417153-6.485715 15.243169-2.87242 22.00006 5.260817-2.923586 6.16849-10.268878 14.320147-10.268878 5.187139 2.031263 8.393157 6.093788 11.44875 10.268878-11.004635 46.75486-28.900214 99.412151-30.087249 146.81067 15.006785-47.24707 28.827559-95.727225 41.538045-145.310503C575.334979 138.121777 566.461891 127.642099 551.327192 123.617435zM504.047376 277.717116c3.871167 0.892323 3.554966 6.114255 8.593725 5.865591 9.244548-47.740304 24.01188-89.861634 37.239136-133.541459-1.832741-0.095167-1.983167-1.877767-4.296863-1.480724C532.893354 192.922894 517.127276 238.21545 504.047376 277.717116zM429.533288 163.253154c0.647753 18.926048-12.486382 31.454386-18.600637 46.944172-13.227256 33.789571-25.455765 68.564585-37.237089 104.174618 6.056949 4.575202 3.111874 18.337647 8.577353 23.50125 18.915815-63.326281 46.853098-125.133975 64.48978-184.890964C438.797279 154.123216 435.906439 160.483064 429.533288 163.253154zM598.568123 160.329569c-18.192338 43.964304-29.27065 95.178733-42.961464 143.81136 7.501858 8.257058-1.814322 25.341155 7.169283 30.80868 9.652847-45.652759 21.676695-82.214467 30.068829-130.599454 8.133238-8.352225 3.539616-29.66974 17.210987-32.290427 6.261611 7.593955 0.778736 20.255323-1.443885 29.347398-8.337899 34.281781-26.754341 80.980359-21.491477 114.464985 13.190417-43.716664 29.622668-84.111676 42.961464-127.676891C622.948393 175.440731 610.424148 168.226422 598.568123 160.329569zM511.19824 210.197326c5.132904-11.864212 7.410783-26.670429 11.486612-39.636742-1.445932 0-2.89084 0-4.317329 0C518.664282 185.559183 509.198699 198.334137 511.19824 210.197326zM403.781788 180.849928c-4.186346 15.243169-14.33959 30.638811-20.045545 47.0025-1.314948 3.75758-0.222057 7.649214-1.463328 11.711739-3.983731 13.363356-15.765055 27.182083-11.43033 39.653115 13.746072-32.896224 27.900443-65.37494 40.090067-99.809193-0.295735-1.195222-1.184989-1.746784-2.852978-1.500167C407.709237 179.99649 404.929938 179.596378 403.781788 180.849928zM299.219337 265.985934c-0.629333 24.791639-22.805402 46.716998-18.619056 76.311013 21.285792-25.133424 22.584368-70.786183 48.705282-91.001597 5.558599-1.38658 5.891174 5.712095 10.004865 1.479701 2.000564-10.573823 10.077519-25.969465 21.509896-17.634636-14.506389 34.091446-28.587082 68.563562-37.257555 108.59837 18.304901 0.853437 10.412141-16.534582 14.32117-29.366841 8.874111-8.54256 8.429996-20.86112 12.913101-33.712823 9.077749-25.987884 31.198559-62.054311 28.641317-82.175581C351.148034 219.402989 326.176292 243.739257 299.219337 265.985934zM642.974495 198.484563c-13.392008 32.479739-33.401738 79.17627-30.065759 114.445542 10.966773-29.839609 16.968463-64.825424 27.194362-95.368044 4.891404 1.385557 5.113461 7.497765 12.894681 5.865591C656.74001 210.956619 655.314545 200.724581 642.974495 198.484563zM640.103098 317.372278c6.188956 2.429329 10.894118 6.455015 11.487635 14.654768 10.486842-24.260543 10.522658-67.216891 31.475875-85.154425-1.019213-4.481058 1.481747-5.316076 1.464351-8.789177-5.742794-5.372358-8.187473-14.123672-17.193591-16.153912C655.591861 250.0418 640.992351 282.975886 640.103098 317.372278zM430.996616 236.640582c4.279467 1.727341 6.170536-6.208399 2.871397-7.346315C433.239703 232.064356 430.756139 232.957703 430.996616 236.640582zM413.786653 295.351752c10.375302-10.477632 9.021467-32.875758 15.746636-46.99943C421.679413 260.424264 412.859537 279.065833 413.786653 295.351752zM694.57164 270.370801c-14.560624 11.428284-17.527189 42.824341-10.041704 64.578808 14.673188-17.691941 17.063631-48.044226 25.789363-71.944566-4.596691-4.061502-5.632277-11.80793-12.894681-13.153578C694.274882 255.964696 688.939363 263.367293 694.57164 270.370801zM531.2796 276.217972c0.056282-5.752004 7.984858-17.519002 1.409093-20.49887C532.873911 262.321474 526.833335 270.163069 531.2796 276.217972zM300.664246 345.238952c10.819416-7.519254 14.005992-22.854521 17.175171-38.156018 6.872524-9.092076 9.540284-22.551622 14.320147-33.788547 0.073678-2.486634-1.074472-3.720741-2.852978-4.366448C316.929698 291.480584 306.629097 316.118728 300.664246 345.238952zM726.064912 276.217972c-1.443885 0-2.87242 0-4.295839 0-5.52176 9.05626-7.206122 22.020526-10.041704 33.789571 9.205663 0.152473 6.687306-11.731182 18.61701-8.845459-0.240477 13.476943-7.429203 19.818371-5.724375 35.270295 4.03899 1.802042 8.855692 1.802042 12.894681 0 1.815345-10.726296 8.393157-29.347398 20.045545-20.558222-1.702782 4.117784-1.573845 10.136871-1.426489 16.153912 6.726192 0.778736 10.929934 7.441483 18.619056 2.922563C763.210927 310.615387 742.221894 295.903314 726.064912 276.217972zM360.820324 302.660204c6.576789-0.645706 9.262968-12.964266 5.724375-19.077497C364.098997 289.392016 360.207363 293.720601 360.820324 302.660204zM269.169951 295.351752c-0.407276 20.464077-26.492374 35.326577-12.894681 55.733349 9.318226-13.95278 18.229177-44.002167 18.599613-60.156078C274.467607 293.966195 271.058974 293.871027 269.169951 295.351752zM221.853295 352.585267c12.115945-4.27128 21.398356-19.171642 20.063965-32.289404C238.118747 333.107657 218.444663 337.133344 221.853295 352.585267z" p-id="5383"></path>
  <path d="M347.924619 762.01724c-45.37135 0.303922-96.355535 0.207731-137.520073-2.922563-4.113691-6.54916-6.559393-17.72878 0-23.500227-8.394181-7.004531-17.637706-13.211906-21.491477-24.944112 3.187599-9.983375 7.225565-21.903869 7.188726-33.769105-0.25992-45.309952-1.666966-97.91096-1.463328-148.196227 0.202615-44.456514-7.355525-87.376023 0-121.8113 27.511587-7.04137 65.787332-14.786775 97.411587-16.135492 4.131087-0.208754 18.433838-1.594311 24.362874 0 10.5421 2.734274 15.042601 21.564132 17.191544 36.655851 14.783705 104.669898 14.247492 236.180094 20.046568 325.83502C349.666286 754.026242 349.64889 758.906389 347.924619 762.01724zM226.150158 433.260681c4.484128 0.703011 4.614088-3.131317 4.317329-7.308453-1.426489 0-2.852978 0-4.317329 0C226.150158 428.380534 226.150158 430.831352 226.150158 433.260681zM277.74628 449.452455c5.52176-3.682879 11.246135-7.061836 18.62008-8.846482 2.037403-4.422729-0.630357-7.840572-1.464351-13.211906C285.65746 431.114808 281.174356 439.714673 277.74628 449.452455zM230.467487 459.685517c7.169283-4.822842 19.304671-18.718317 14.32117-26.424836C240.361835 442.446901 234.266 449.906803 230.467487 459.685517zM237.637794 484.682841c8.893554-12.926404 18.674315-24.90318 25.752524-39.653115C250.161015 452.489628 239.563656 470.466048 237.637794 484.682841zM287.769564 461.183637c-15.839757 17.235546-36.682457 42.178635-48.724725 64.577784-1.925862 3.569292-8.670473 16.437367-1.408069 20.521383 19.064194-27.867698 39.387056-54.556547 55.875588-85.099167C291.586496 461.183637 289.658587 461.183637 287.769564 461.183637zM300.664246 483.182674c-10.3006 0.551562-9.634428 11.220552-14.33959 17.634636-17.989723 24.449855-42.240033 56.985876-54.43068 85.099167 3.816932 0.493234 1.296529 7.460925 4.297886 8.7902 22.453385-32.28838 39.387056-70.198805 65.880453-98.312096C303.184649 490.340701 299.904952 488.859977 300.664246 483.182674zM299.219337 516.915963c-6.633071 12.623505-14.486946 21.906939-21.472034 35.233456-11.930727 22.796192-30.661324 42.215474-31.512714 68.99949 17.044188-17.501606 27.15957-42.97579 40.09109-64.596204 7.631818-12.757558 20.786419-24.923646 17.210987-39.635719C302.072315 516.915963 300.664246 516.915963 299.219337 516.915963zM253.385453 646.073578c8.595772-0.437975 7.65126-10.726296 12.894681-14.654768 9.855462-12.868075 21.008476-39.825031 32.939203-55.788607 5.242398-7.04444 16.581654-19.609617 5.725398-24.924669C288.43676 583.185272 266.834766 610.461499 253.385453 646.073578zM304.944735 591.783091c-12.432147 17.08512-19.545148 39.634696-34.366715 54.290487-4.853541 20.97573-23.267936 35.818787-21.48943 58.730613 18.841114-33.539884 35.458583-69.359694 61.581544-95.385441-0.518816-5.866614 1.333368-14.105253-1.408069-17.634636C307.816133 591.783091 306.408063 591.783091 304.944735 591.783091zM272.021905 694.514847c0.815575 3.078105 3.538593 4.178159 2.852978 8.7902 10.43056-5.748934 10.485819-18.374486 17.174148-30.788214 7.411807-13.81975 24.436552-22.113647 20.063965-39.655162-1.833765-0.095167-1.983167-1.879813-4.297886-1.442862C294.995129 651.539057 281.322735 670.825308 272.021905 694.514847zM284.898167 729.747279c1.667989 1.234107 3.854794 1.938142 7.151887 1.480724 4.353145-19.419282 30.142507-41.326221 18.619056-61.654198C301.36828 688.860057 290.363645 706.495716 284.898167 729.747279zM263.389294 728.247112c5.817496 0.057305 7.966439-11.33107 5.779633-14.653745C267.780301 718.661803 260.14746 723.083509 263.389294 728.247112z" p-id="5384"></path>
  <path d="M843.504648 762.01724c-25.547863 11.332093-70.882374 4.480035-104.545054 4.384867-17.171078 0-31.753191 3.226484-38.680974-10.229992-1.834788-4.51892 3.557012-12.529361 10.041704-13.21293-2.558265-6.224772-11.672854-5.676279-14.33959-11.731182-0.260943-69.151963-3.170203-151.820778-5.742794-231.890394-0.667196-21.86703 3.297093-42.670845 4.333702-63.09706 0.704035-15.394618-5.241374-27.620058 10.003841-33.789571 5.575995-2.221598 13.5629-0.588401 21.48943-1.442862 33.866319-3.758604 59.026348-16.324804 85.928045-8.827039 16.33913 25.570375 23.434735 78.532611 28.639271 120.368438C850.934874 594.954317 852.472903 682.537048 843.504648 762.01724zM781.942547 423.028643c-21.454638 22.057365-39.127136 47.930639-54.468542 76.308967 3.223415 0.588401-0.185218 8.048303 4.334725 7.290033 18.711154-26.270317 34.163077-55.923684 55.838749-79.232552C786.388812 425.26866 785.517979 422.782026 781.942547 423.028643zM734.661707 458.241632c7.188726-10.269901 17.60189-17.180288 21.473057-30.846542C744.852814 432.463526 734.960513 446.775486 734.661707 458.241632zM763.304048 481.702973c-11.243065 16.989953-22.87908 30.200836-18.600637 51.366901 7.743358-9.491165 16.822131-23.157419 27.196409-38.154995 7.745405-11.180644 28.901237-38.705534 20.046568-48.442292C781.31219 455.375352 773.680373 466.042295 763.304048 481.702973zM794.799366 481.702973c-15.396665 29.252231-37.405935 51.707662-50.095955 83.657328 16.693194-17.102516 31.144324-36.561707 40.09109-61.656245 5.372358-2.790556 8.299013-8.105608 15.748682-8.788154 0.444115-5.315052-0.2415-9.549493-1.427512-13.21293C797.689183 481.702973 796.244274 481.702973 794.799366 481.702973zM733.198379 610.860589c-3.000334 6.948249-1.352811 17.729803-1.388627 27.866674 30.234605-28.607548 45.24139-72.969918 74.458829-102.733802-2.520403-7.708566 0.461511-21.014616-5.725398-24.944112C782.942317 542.846542 748.502947 575.781652 733.198379 610.860589zM803.396161 556.551682c-14.228049 34.776038-39.33282 58.522881-54.429657 92.463901 7.261381-0.64673 14.560624-13.269211 17.209964-23.443945 9.207709-8.997931 17.303085-20.122293 24.325012-30.864962 7.226588-11.067057 16.153912-23.347754 18.637476-38.154995C807.21207 556.551682 805.284161 556.551682 803.396161 556.551682zM737.515708 577.13037c6.002714 0.245593 4.669346-7.006578 7.187703-10.289344C738.997456 566.898331 738.775398 572.554144 737.515708 577.13037zM774.753821 640.226406c-11.004635 16.533558-18.822694 34.719756-27.235294 48.425919-4.833075 7.894807-16.060791 17.385972-8.558933 27.864628 20.529569-31.283494 38.647205-65.073064 61.58359-93.945649 4.224208-1.02433 8.874111-1.632173 11.449773-4.365424-2.501984-8.201799 1.480724-23.044856-5.725398-26.423813C798.170137 607.42535 786.536168 622.47716 774.753821 640.226406zM769.028423 700.381461c4.427846-1.100054 2.744507 4.025687 7.151887 2.922563 10.543124-20.709671 40.759309-42.311665 32.958646-67.500347C790.984481 652.432403 778.719132 675.096589 769.028423 700.381461zM797.689183 700.381461c7.115048-0.548492 5.223978-10.287297 14.303774-8.78713 0-3.930519 0-7.860015 0-11.732206C804.655851 684.075077 800.765241 691.839925 797.689183 700.381461zM787.648502 731.228003c-0.593518-7.993045 5.741771-16.58984 4.297886-20.577664C788.390399 714.789613 777.274224 726.408231 787.648502 731.228003zM800.543184 737.093595c13.636578 2.220574 11.226692-11.976776 11.449773-23.500227-1.445932 0-2.854001 0-4.298909 0C806.655392 722.782657 800.431643 726.654848 800.543184 737.093595z" p-id="5385"></path>
  <path d="M574.223668 396.60483c16.414855 68.299549 14.45113 155.827021 15.748682 239.198847 0.666172 40.98239 3.778046 84.545558 0 126.213563-14.675234 9.889231-34.013675 14.920828-54.41226 11.731182-9.950629 4.916986-11.912307 24.449855-25.771967 20.577664-6.204305-6.606465 1.25969-12.225439 1.409093-20.577664-27.975145 6.16849-40.925085-9.130961-55.856146-20.519336 4.946662-21.261233 0.906649-42.710754 0-66.059532-1.315972-33.789571 3.722788-73.482595 4.316306-113.020076 0.2415-18.092054-2.427282-36.467563-2.889817-54.310953-0.518816-21.203928 3.612271-40.868803 4.297886-60.154032 0.667196-18.470677-3.76065-38.650275 2.89084-52.810786C487.594659 391.082046 542.582017 388.650671 574.223668 396.60483zM524.091898 425.952228c-9.597589 18.584264-30.494525 33.238009-28.641317 58.730613 15.691377-16.20917 29.05064-34.83232 37.238113-58.730613C529.816273 425.952228 526.943852 425.952228 524.091898 425.952228zM495.450581 437.683411c5.409197-0.342808 7.743358-3.834328 7.151887-10.288321C497.265926 427.792133 494.246149 430.583712 495.450581 437.683411zM496.895489 521.338692c10.467399-0.986467 8.299013-14.957667 17.154705-17.634636 8.245801-23.346731 24.880667-38.096666 31.533181-63.09706-1.446955 0-2.873444 0-4.28049 0C527.149537 468.225007 509.011434 491.688395 496.895489 521.338692zM514.050194 535.99346c16.712637-12.225439 17.508769-40.793078 35.831067-51.311643 0.850367-5.372358 2.650363-13.817704-2.852978-16.20917C535.912108 490.929102 520.201288 508.564761 514.050194 535.99346zM515.495102 563.916417c-7.668657 13.115716-22.268166 28.758997-18.599613 45.50131 25.750477-18.185174 28.826536-59.509349 57.283658-74.866105 1.222851-13.118785-0.036839-19.572778-5.724375-27.925003C538.560424 519.193843 525.742491 546.377972 515.495102 563.916417zM548.454772 556.551682c-16.693194 32.838919-43.185568 55.541991-53.004191 95.388511 21.972431-19.516496 33.791617-49.525973 48.685839-76.30999 6.116301-3.511987 11.672854-7.65126 12.895705-16.135492C554.494325 558.203298 553.400411 555.412742 548.454772 556.551682zM494.042511 703.304024c12.488429-11.180644 19.824511-30.04734 28.64234-45.442982 13.338796-23.462365 36.69883-41.895179 30.049387-67.579141C530.725992 625.458051 507.362888 659.286508 494.042511 703.304024zM551.327192 637.284401c-13.411451 26.38595-32.30987 47.151903-41.538045 77.751828 10.857279-10.233062 16.045441-25.190729 24.343431-38.154995 7.930623-12.376888 22.937408-23.25361 21.473057-39.596833C554.179147 637.284401 552.734238 637.284401 551.327192 637.284401zM531.2796 715.036229c11.634991-4.669346 16.673751-16.153912 27.198455-21.962198-3.964288-3.778046 0.99977-16.686031-2.87242-20.558222C543.543925 681.740916 533.023314 700.134845 531.2796 715.036229zM539.839557 745.883795c7.372921-0.741897 12.894681-3.437286 17.192567-7.347339-1.832741-7.916297-0.148379-19.436678-2.852978-26.443255C546.138006 720.048383 540.671505 730.582297 539.839557 745.883795zM498.304581 745.883795c9.374508 2.087545 8.593725-12.907984 2.889817-14.654768C500.527203 736.390583 498.006799 739.676419 498.304581 745.883795z" p-id="5386"></path>
  <path d="M824.887638 801.672402c21.61939 23.346731 9.447163 92.804662 8.576329 126.175701-0.277316 12.282744 4.167926 19.324114-5.724375 24.942065-54.504358-9.736758-123.775025 7.195889-174.741813-5.863545-5.687536-0.948605-5.760191 3.872191-11.44875 2.943029-47.093575-7.66968-112.455211 1.423419-164.734902 1.479701-27.381627 0.056282-57.543577-5.9055-77.329203 7.308453-6.558369 0.400113-5.90857-6.606465-12.894681-5.866614-21.193695 4.216022-44.352137 1.198292-65.878406 1.481747-15.266705 0.208754-32.107255 6.510274-45.835931 4.384867-2.222621-0.302899-5.187139-4.327562-7.16826-4.384867-17.026792-0.245593-38.498826 6.814196-54.41226-4.403287-5.818519-4.079922-6.52153-13.574157-11.485589-17.597797-8.336876-6.90834-18.415418-2.27788-25.789363-11.770068-1.889023-39.746236 8.744151-78.736249-1.408069-114.462938 3.593851-21.165042 33.274848-15.886829 38.683021 0 50.095955 6.264681 99.375312 1.690502 151.805428 4.422729 21.675672 1.13894 44.036959 6.455015 73.067132 2.923586 13.245675-1.63422 33.717939-6.547113 50.131771 0 24.566512-7.28901 50.872644-4.859681 77.330226-5.848195C653.10932 804.254204 744.278739 784.721335 824.887638 801.672402zM730.345402 870.617657c-0.907673 1.403976-4.722558 1.49812-5.724375 2.940982-9.355065 13.666254-16.932648 28.510334-21.48943 41.077557 13.190417 6.359848 12.837376-13.059434 21.48943-16.134469 9.226129-29.176506 34.719756-41.686425 45.834908-68.963675C747.445872 828.247664 741.352083 853.626681 730.345402 870.617657zM677.342234 916.115897c10.262738 1.196245 9.856485-8.484232 11.487635-16.132422 12.134365-12.017708 17.395182-31.094182 31.495318-41.080627 0.109494-14.254655 17.876136-17.691941 15.763009-29.364795C708.724988 850.399173 690.051697 880.165104 677.342234 916.115897zM787.648502 832.480059c-20.156062 24.829502-35.848463 54.235229-54.450123 80.7143 3.242857 5.316076 14.655791 2.581802 18.655895 0-3.927449-9.43386 4.334725-11.42726 8.558933-19.114336 10.414187-18.73776 13.468756-44.87607 34.386158-46.945195 3.370771 0.493234 2.668783 5.106298 7.150864 4.40431 1.556449-5.959735-0.51984-8.048303 0-16.135492C797.615505 831.228555 794.909883 831.131341 787.648502 832.480059zM691.681824 835.403644c-13.560854 19.875676-24.177656 42.768059-37.239136 63.098083-8.707312 3.605108-29.309536 14.44499-31.513738 0-1.12973-7.557116 6.91141-13.173021 18.619056-8.806573 7.393387-20.804838 21.122063-35.117822 31.513738-52.809763-3.593851-5.012154-11.227716 0.400113-18.619056 0-13.894452 22.456455-34.939767 45.36828-41.533952 70.40756 9.854439 8.046257 32.307823 3.131317 45.831838 7.344269 7.634888-36.162618 34.014698-53.208852 48.688909-82.156138C700.388113 831.569316 698.759009 836.295967 691.681824 835.403644zM220.444203 848.614527c5.448082-1.290389 2.668783-11.425214-2.871397-10.288321C215.480144 840.661392 214.62773 850.002131 220.444203 848.614527zM243.380588 839.826374c-7.225565 18.525935-19.360953 31.985482-25.807782 51.366901 3.835352 0 7.652284 0 11.468193 0 8.633634-18.092054 22.046109-31.207769 32.940227-47.001477C258.201132 838.383512 250.73509 838.573847 243.380588 839.826374zM597.161077 867.694071c-10.765181 15.394618-18.712177 28.966729-24.362874 42.520419 4.02057 1.784646 9.874905 1.651616 15.766079 1.49812 10.504238-28.814256 31.197536-47.304376 44.369533-73.385381C616.056426 839.921541 606.868159 853.779154 597.161077 867.694071zM529.816273 876.483248c-8.150634 13.4575-18.914792 25.28385-20.027126 38.152948 18.4717 1.290389 26.086122-19.816325 31.514761-36.652781 11.987009-10.232039 19.434631-25.095561 28.622898-38.156018C545.509696 839.921541 539.692201 860.233146 529.816273 876.483248zM591.416236 839.826374c-16.85897 22.305005-34.198893 44.153616-47.279816 70.387094 11.709693 2.486634 13.116739-17.672498 22.937408-21.962198 6.188956-20.558222 25.564235-27.621081 31.493272-48.424896C596.195076 839.826374 593.806679 839.826374 591.416236 839.826374zM259.12927 883.847983c13.671371-9.491165 19.970844-26.539446 28.641317-41.098024-2.371-2.486634-8.428973-1.193175-12.894681-1.480724C279.766286 860.687494 255.831154 861.390505 259.12927 883.847983zM290.640961 864.751043c-8.280594 13.023618-20.415982 33.94102-21.472034 41.097-1.112334 7.15598-2.705622 16.533558 5.705955 19.077497 13.099343-30.105668 32.643468-53.662177 48.686862-80.732719C307.037397 837.986469 298.071188 853.094562 290.640961 864.751043zM343.645153 842.74996c-7.631818 15.149025-21.675672 23.804149-25.805736 42.522466 12.059664 1.404999 16.542768-11.31572 21.471011-17.578354 5.854335-7.346315 13.487176-13.858636 15.766079-23.50125C351.630011 843.301522 348.554976 842.104253 343.645153 842.74996zM515.495102 844.192821c-20.044522 19.077497-34.698267 43.716664-47.25935 70.443375 7.020904 1.102101 13.357216 2.279926 20.062941 0 11.709693-27.124777 31.383778-46.108131 44.388976-71.886237C527.000134 843.301522 518.941598 841.402265 515.495102 844.192821zM468.235752 847.134827c-15.321964 13.402241-30.847565 50.077535-40.09109 67.50137 6.576789 2.336208 11.633968 0.248663 18.618033 0 11.67183-25.188682 31.013341-42.576701 42.944068-67.50137C483.519854 844.250126 471.254505 844.496743 468.235752 847.134827zM372.250654 845.692988c-6.114255 16.686031-21.601994 23.784706-25.752524 42.559305-7.448646 8.162914-20.231787 18.240433-17.192567 32.249495 9.226129 0.704035 9.282411-8.048303 15.747659-10.287297 7.206122-26.822902 30.419823-37.299511 37.219693-64.521502C378.95638 845.692988 375.621425 845.692988 372.250654 845.692988zM376.586402 891.194298c-5.595438 9.6815-15.692401 12.624529-14.340613 24.921599 12.172227-0.434905 13.654998-14.84408 18.618033-22.035876 5.687536-8.201799 14.765285-13.480013 17.193591-23.462365 3.000334-1.786693 5.595438-4.064572 8.614192-5.866614 0.426719-8.333806 8.485255-8.921183 8.559956-17.616216C391.684262 844.894809 387.461077 872.211968 376.586402 891.194298zM436.720991 847.134827c-9.151427 6.738471-13.043061 18.926048-22.934339 24.923646-3.873214 17.788132-21.342074 28.720112-21.472034 45.50131 9.114588 1.556449 13.282514-2.030239 18.618033-4.366448 8.300037-26.233478 28.41926-40.393989 37.256532-66.059532C444.391694 847.134827 440.556343 847.134827 436.720991 847.134827zM767.601934 914.636197c16.97051 4.727675 18.472723-20.556175 12.877285-29.363771C776.051373 894.174166 766.657422 905.146055 767.601934 914.636197zM216.14734 924.92554c2.408863 0 4.779863 0 7.150864 0 0-6.320962-1.37123-11.276834-5.725398-13.21293C215.554846 914.578892 212.886063 921.147494 216.14734 924.92554zM234.765373 924.92554c8.429996 4.972245 8.800433-6.415107 11.468193-11.731182-1.852184-0.096191-2.001587-1.879813-4.316306-1.481747C239.860415 916.421866 236.581742 919.953296 234.765373 924.92554z" p-id="5387"></path>
</svg>
