<?xml version="1.0" standalone="no"?><!DOCTYPE svg PUBLIC "-//W3C//DTD SVG 1.1//EN" "http://www.w3.org/Graphics/SVG/1.1/DTD/svg11.dtd"><svg t="1577673772119" class="icon" viewBox="0 0 1024 1024" version="1.1" xmlns="http://www.w3.org/2000/svg" p-id="5855" xmlns:xlink="http://www.w3.org/1999/xlink" width="80" height="80"><defs><style type="text/css"></style></defs><path d="M725.333333 725.333333c-6.4 0-10.666667 2.133333-14.933333 6.4L533.333333 908.8 533.333333 64c0-12.8-8.533333-21.333333-21.333333-21.333333s-21.333333 8.533333-21.333333 21.333333l0 844.8-177.066667-177.066667C309.333333 727.466667 305.066667 725.333333 298.666667 725.333333c-12.8 0-21.333333 8.533333-21.333333 21.333333 0 6.4 2.133333 10.666667 6.4 14.933333l213.333333 213.333333c4.266667 4.266667 8.533333 6.4 14.933333 6.4 6.4 0 10.666667-2.133333 14.933333-6.4l213.333333-213.333333c4.266667-4.266667 6.4-8.533333 6.4-14.933333C746.666667 733.866667 738.133333 725.333333 725.333333 725.333333z" p-id="5856"></path></svg>