<?xml version="1.0" standalone="no"?><!DOCTYPE svg PUBLIC "-//W3C//DTD SVG 1.1//EN" "http://www.w3.org/Graphics/SVG/1.1/DTD/svg11.dtd"><svg class="icon" width="200px" height="200.00px" viewBox="0 0 1024 1024" version="1.1" xmlns="http://www.w3.org/2000/svg"><path fill="#0284fe" d="M574.3 901.3c-10.9 0-21.8-3-31.4-8.5L293.7 737.1H165.8c-57.9 0-105-47.1-105-105v-231c0-57.9 47.1-105 105-105h112.1l264.3-164.5c10.2-5.9 21.1-8.9 32-8.9 34.8 0 63.1 28.3 63.1 63.1v652.5c0 17.3-6.8 33.5-19.3 45.4-11.7 11.2-27.6 17.6-43.7 17.6zM165.8 338.1c-34.7 0-63 28.3-63 63v231c0 34.7 28.3 63 63 63h139.9l258.8 161.8c6.7 3.8 17.9 2.8 24.5-3.5 2.9-2.7 6.3-7.6 6.3-15.1V185.7c0-17.6-18.8-25.4-31.5-18.2L289.9 338.1H165.8zM723.9 755.7c-5.4 0-10.7-2.1-14.8-6.2-8.2-8.2-8.2-21.5 0-29.7 55.5-55.5 86.1-129.4 86.1-207.9S764.6 359.5 709.1 304c-8.2-8.2-8.2-21.5 0-29.7s21.5-8.2 29.7 0c63.5 63.5 98.4 147.8 98.4 237.6 0 89.7-34.9 174.1-98.4 237.6-4.1 4.2-9.5 6.2-14.9 6.2zM816.2 841.6c-5.3 0-10.6-2-14.7-6-8.3-8.1-8.4-21.4-0.3-29.7 77.4-79 120-183.3 120-293.9 0-113.9-44.8-220.4-126.1-300.1-8.3-8.1-8.4-21.4-0.3-29.7s21.5-8.4 29.7-0.3C914 269.5 963.3 386.7 963.3 512c0 121.6-46.9 236.4-132 323.3-4.2 4.2-9.6 6.3-15.1 6.3z" /></svg>