<?xml version="1.0" standalone="no"?><!DOCTYPE svg PUBLIC "-//W3C//DTD SVG 1.1//EN" "http://www.w3.org/Graphics/SVG/1.1/DTD/svg11.dtd"><svg class="icon" width="200px" height="200.00px" viewBox="0 0 1024 1024" version="1.1" xmlns="http://www.w3.org/2000/svg"><path fill="#feaf48" d="M834.772681 62.633113H172.518534c-38.315837 0-69.472667 31.171165-69.472667 69.485978V890.230406c0 38.301502 31.15683 69.472667 69.472667 69.472667h662.254147c38.315837 0 69.472667-31.171165 69.472668-69.472667V132.120115c0-38.315837-31.15683-69.487001-69.472668-69.487002z m13.302319 827.598317c0 7.336138-5.97949 13.302318-13.302319 13.302318H172.518534c-7.322828 0-13.302318-5.965156-13.302318-13.302318V132.120115c0-7.337162 5.97949-13.315629 13.302318-13.315629h662.254147c7.322828 0 13.302318 5.97949 13.302319 13.315629v758.111315z"  /><path fill="#feaf48" d="M339.274641 768.372694h-84.118323c-15.524149 0-28.085174 12.57536-28.085174 28.085175s12.562049 28.085174 28.085174 28.085174h84.118323c15.523125 0 28.085174-12.57536 28.085175-28.085174s-12.561025-28.085174-28.085175-28.085175zM656.606396 763.038252H572.488073c-15.523125 0-28.085174 12.57536-28.085174 28.085174s12.562049 28.085174 28.085174 28.085175h84.118323c15.524149 0 28.085174-12.57536 28.085175-28.085175s-12.562049-28.085174-28.085175-28.085174zM751.202137 412.547971H572.487049c-15.523125 0-28.085174 12.57536-28.085174 28.085174s12.562049 28.085174 28.085174 28.085175h178.715088c15.524149 0 28.085174-12.57536 28.085175-28.085175s-12.561025-28.085174-28.085175-28.085174zM433.871406 593.415265H255.156318c-15.524149 0-28.085174 12.57536-28.085174 28.085175s12.562049 28.085174 28.085174 28.085174h178.715088c15.523125 0 28.085174-12.57536 28.085175-28.085174s-12.562049-28.085174-28.085175-28.085175zM751.202137 593.415265H572.487049c-15.523125 0-28.085174 12.57536-28.085174 28.085175s12.562049 28.085174 28.085174 28.085174h178.715088c15.524149 0 28.085174-12.57536 28.085175-28.085174s-12.561025-28.085174-28.085175-28.085175zM751.202137 223.301198H572.487049c-15.523125 0-28.085174 12.57536-28.085174 28.085175s12.562049 28.085174 28.085174 28.085174h178.715088c15.524149 0 28.085174-12.57536 28.085175-28.085174s-12.561025-28.085174-28.085175-28.085175zM423.94279 223.301198H275.616619c-26.768458 0-48.545475 21.777017-48.545475 48.545475v148.325148c0 26.768458 21.777017 48.545475 48.545475 48.545475H423.94279c26.768458 0 48.545475-21.777017 48.545475-48.545475V271.846673c0-26.768458-21.777017-48.545475-48.545475-48.545475z m-7.624874 189.246773H283.241493V279.471547h133.076423v133.076424z"  /></svg>