<?xml version="1.0" standalone="no"?><!DOCTYPE svg PUBLIC "-//W3C//DTD SVG 1.1//EN" "http://www.w3.org/Graphics/SVG/1.1/DTD/svg11.dtd"><svg class="icon" width="200px" height="200.00px" viewBox="0 0 1024 1024" version="1.1" xmlns="http://www.w3.org/2000/svg"><path fill="#1296db" d="M910.2336 1024H113.7664C51.2 1024 0 972.8 0 910.2336V113.7664C0 51.2 51.2 0 113.7664 0h796.4672C972.8 0 1024 51.2 1024 113.7664v796.4672C1024 972.8 972.8 1024 910.2336 1024zM793.6 230.4H230.4c-28.2368 0-51.2 22.9632-51.2 51.2v460.8c0 28.2368 22.9632 51.2 51.2 51.2h563.2c28.2368 0 51.2-22.9632 51.2-51.2V281.6c0-28.2368-22.9632-51.2-51.2-51.2z m0 51.2l0.0256 416.9472L640 435.2l-128 230.4-128-128-153.6 175.5392V281.6h563.2z m-452.2752 173.5168a56.9088 56.9088 0 1 0-0.0256-113.8176 56.9088 56.9088 0 0 0 0.0256 113.8176z"  /></svg>