<?xml version="1.0" encoding="utf-8"?>
<!-- Generator: Adobe Illustrator 22.1.0, SVG Export Plug-In . SVG Version: 6.00 Build 0)  -->
<svg version="1.1" id="图层_1" xmlns="http://www.w3.org/2000/svg" xmlns:xlink="http://www.w3.org/1999/xlink" x="0px" y="0px"
	 viewBox="0 0 2000 2000" style="enable-background:new 0 0 2000 2000;" xml:space="preserve">
<style type="text/css">
	.st0{fill:#BCBCBC;}
	.st1{fill:#CECECE;}
	.st2{fill:#ECEBED;}
	.st3{fill:#FFFFFF;}
	.st4{fill:#C4C4C4;}
</style>
<path class="st0" d="M1315.5,447.3H635.4c-19.4,0-35.2-15.8-35.2-35.2v-11.7c0-19.4,15.8-35.2,35.2-35.2h680.1
	c19.4,0,35.2,15.8,35.2,35.2v11.7C1350.7,431.6,1334.9,447.3,1315.5,447.3z"/>
<path class="st1" d="M1350.7,417.4H600.2v-17c0-19.4,15.8-35.2,35.2-35.2h680.1c19.4,0,35.2,15.8,35.2,35.2V417.4z"/>
<rect x="665.8" y="447.3" class="st0" width="220.2" height="55.4"/>
<rect x="886" y="447.3" class="st2" width="170.6" height="55.4"/>
<rect x="1056.6" y="447.3" class="st0" width="213.9" height="55.4"/>
<path class="st0" d="M886,849H764c-54.3,0-98.3-44-98.3-98.3v-248H886V849z"/>
<path class="st1" d="M886,826.1H773.3c-59.4,0-107.5-48.1-107.5-107.5V502.7H886V826.1z"/>
<rect x="886" y="502.7" class="st3" width="170.6" height="346.3"/>
<path class="st0" d="M1056.6,849h117.1c53.5,0,96.8-43.4,96.8-96.8V502.7h-213.9V849z"/>
<path class="st1" d="M1056.6,826.1h108c58.5,0,106-47.4,106-106V502.7h-213.9V826.1z"/>
<path class="st0" d="M1124.8,947H822.9c-29.1,0-52.8-23.6-52.8-52.8v-33.6c0-19.2,15.6-34.8,34.8-34.8h337.9
	c19.2,0,34.8,15.6,34.8,34.8v33.6C1177.5,923.4,1153.9,947,1124.8,947z"/>
<path class="st1" d="M1142.5,907.6H805.1c-19.3,0-35-15.7-35-35v-11.6c0-19.3,15.7-35,35-35h337.4c19.3,0,35,15.7,35,35v11.6
	C1177.5,891.9,1161.9,907.6,1142.5,907.6z"/>
<circle class="st0" cx="981.3" cy="1258.6" r="315.6"/>
<circle class="st0" cx="978.5" cy="1197.9" r="253.7"/>
<circle class="st4" cx="985.7" cy="1258.6" r="253.7"/>
<path class="st1" d="M1296.9,1197.9c0,174.3-141.3,315.6-315.6,315.6s-315.6-141.3-315.6-315.6s141.3-315.6,315.6-315.6
	S1296.9,1023.6,1296.9,1197.9z M981.3,944.2c-140.1,0-253.7,113.6-253.7,253.7s113.6,253.7,253.7,253.7S1235,1338,1235,1197.9
	S1121.4,944.2,981.3,944.2z"/>
<path class="st0" d="M1004.6,1092.5l31.7,64.2c3.8,7.7,11.2,13.1,19.7,14.3l70.8,10.3c12.6,1.8,17.6,17.3,8.5,26.1l-51.2,49.9
	c-6.2,6-9,14.7-7.5,23.2l12.1,70.5c2.1,12.5-11,22.1-22.2,16.2L1003,1334c-7.6-4-16.7-4-24.4,0l-63.3,33.3
	c-11.2,5.9-24.4-3.6-22.2-16.2l12.1-70.5c1.5-8.5-1.4-17.2-7.5-23.2l-51.2-49.9c-9.1-8.9-4.1-24.3,8.5-26.1l70.8-10.3
	c8.5-1.2,15.9-6.6,19.7-14.3l31.7-64.2C982.7,1081.1,999,1081.1,1004.6,1092.5z"/>
<path class="st1" d="M1004.6,1069.8l31.7,64.2c3.8,7.7,11.2,13.1,19.7,14.3l70.8,10.3c12.6,1.8,17.6,17.3,8.5,26.1l-51.2,49.9
	c-6.2,6-9,14.7-7.5,23.2l12.1,70.5c2.1,12.5-11,22.1-22.2,16.2l-63.3-33.3c-7.6-4-16.7-4-24.4,0l-63.3,33.3
	c-11.2,5.9-24.4-3.6-22.2-16.2l12.1-70.5c1.5-8.5-1.4-17.2-7.5-23.2l-51.2-49.9c-9.1-8.9-4.1-24.3,8.5-26.1l70.8-10.3
	c8.5-1.2,15.9-6.6,19.7-14.3l31.7-64.2C982.7,1058.4,999,1058.4,1004.6,1069.8z"/>
</svg>
