<?xml version="1.0" encoding="utf-8"?>
<!-- Generator: Adobe Illustrator 22.1.0, SVG Export Plug-In . SVG Version: 6.00 Build 0)  -->
<svg version="1.1" id="图层_1" xmlns="http://www.w3.org/2000/svg" xmlns:xlink="http://www.w3.org/1999/xlink" x="0px" y="0px"
	 viewBox="0 0 150 150" style="enable-background:new 0 0 150 150;" xml:space="preserve">
<style type="text/css">
	.st0{fill:none;stroke:#FFFFFF;stroke-width:2;stroke-linecap:round;stroke-linejoin:round;stroke-miterlimit:10;}
	.st1{fill:none;stroke:#FFFFFF;stroke-width:2;stroke-miterlimit:10;}
	.st2{fill:none;stroke:#FFFFFF;stroke-width:2;stroke-linecap:round;stroke-miterlimit:10;}
	.st3{fill:none;stroke:#F2F2F2;stroke-width:2;stroke-miterlimit:10;}
	.st4{fill:none;stroke:#F2F2F2;stroke-width:2;stroke-linecap:round;stroke-miterlimit:10;}
	.st5{fill:#FFFFFF;}
	.st6{font-family:'RTWSYueRoudGoG0v1-Regular-GBpc-EUC-H';}
	.st7{font-size:12px;}
</style>
<g>
	<path class="st0" d="M60.7,29.4c-2.9,0.8-5.5,2.1-7.8,3.8"/>
	<path class="st0" d="M47.3,39.5c-2.2,3.7-3.4,8-3.1,12.5"/>
	<g>
		<circle class="st0" cx="43.6" cy="64.2" r="2.5"/>
		<circle class="st0" cx="60" cy="59.7" r="2.5"/>
		<circle class="st0" cx="76.5" cy="55.1" r="2.5"/>
		<circle class="st0" cx="92.9" cy="50.7" r="2.5"/>
	</g>
	<g id="XMLID_1_">
		<path class="st1" d="M95,44.1L38.5,59.4c-4.1-15.5,5.1-31.5,20.7-35.7S90.6,28.6,95,44.1z"/>
		<rect x="41.2" y="63" transform="matrix(0.9652 -0.2616 0.2616 0.9652 -14.8107 20.7264)" class="st1" width="58.6" height="6"/>
		<path class="st1" d="M41.4,70.8l56.5-15.3l4.5-1.2c2.6-0.7,4.3-3,4.3-5.6c0-0.5-0.1-1-0.2-1.5c-0.8-3.1-4-4.9-7.1-4.1L34.1,60.8
			c-2.6,0.7-4.3,3-4.3,5.6c0,0.5,0.1,1,0.2,1.5c0.8,3.1,4,4.9,7.1,4.1L41.4,70.8z"/>
	</g>
	<polyline class="st2" points="50,92.4 49,112.5 122.9,112.5 123.5,112.3 91.5,63.4 50.9,74.4 50.3,87.3 	"/>
</g>
<line class="st2" x1="33.7" y1="113" x2="125.3" y2="113"/>
<line class="st2" x1="114.8" y1="122.3" x2="134.6" y2="122.3"/>
<line class="st2" x1="108.8" y1="122.3" x2="110.4" y2="122.3"/>
<line class="st2" x1="43.1" y1="122.3" x2="104.2" y2="122.3"/>
<line class="st2" x1="130.7" y1="113" x2="142" y2="113"/>
<circle class="st3" cx="69.4" cy="10.9" r="4.2"/>
<circle class="st3" cx="24.9" cy="34.7" r="3"/>
<circle class="st3" cx="117.9" cy="68.7" r="3"/>
<g>
	<line class="st4" x1="21.1" y1="12.5" x2="24.2" y2="15.6"/>
	<line class="st4" x1="21.1" y1="15.6" x2="24.2" y2="12.5"/>
</g>
<g>
	<line class="st4" x1="8.3" y1="60.7" x2="11.4" y2="63.9"/>
	<line class="st4" x1="8.3" y1="63.9" x2="11.4" y2="60.7"/>
</g>
<g>
	<line class="st4" x1="110.5" y1="24.2" x2="113" y2="26.6"/>
	<line class="st4" x1="110.5" y1="26.6" x2="113" y2="24.2"/>
</g>
<g>
	<line class="st4" x1="128.9" y1="42.6" x2="134.1" y2="45.4"/>
	<line class="st4" x1="130.1" y1="46.6" x2="132.9" y2="41.4"/>
</g>
<text transform="matrix(1 0 0 1 69.1445 141.8154)" class="st5 st6 st7">暂无简介</text>
</svg>
