<?xml version="1.0" standalone="no"?>
<!DOCTYPE svg PUBLIC "-//W3C//DTD SVG 1.1//EN" "http://www.w3.org/Graphics/SVG/1.1/DTD/svg11.dtd">
<svg class="" data-icon="calendar" width="1em" height="1em" fill="currentColor" aria-hidden="true" viewBox="0 0 1024 1024">
  <path d="M638.114 573.44c49.583-38.804 81.92-99.166 81.92-167.074 0-117.49-94.855-212.345-212.346-212.345s-212.345 94.855-212.345 212.345c0 67.908 32.337 128.27 81.92 167.074C246.838 625.179 154.14 753.448 154.14 902.198v71.14c0 19.403 16.168 35.571 35.57 35.571h637.036c19.402 0 35.57-16.168 35.57-35.57v-71.141c-1.077-148.75-93.776-275.941-224.201-328.758zM507.688 265.162c77.609 0 141.205 63.596 141.205 141.204s-63.596 141.205-141.205 141.205-141.204-63.596-141.204-141.205 62.518-141.204 141.204-141.204z m283.487 672.606H224.202v-35.57c0-156.295 127.192-283.486 283.486-283.486s283.487 127.191 283.487 283.486v35.57z" fill="#343844" p-id="5354"></path>
  <path d="M270.552 339.537c1.077-2.156 1.077-4.312 1.077-6.468 0-1.077 1.078-2.155 1.078-4.311V315.823c0-1.078-1.078-1.078-1.078-2.156-1.077-1.078-2.155-2.155-2.155-4.311-1.078-3.234-3.234-5.39-5.39-8.623l-1.078-1.078c-3.233-3.234-6.467-5.39-10.779-7.546-38.804-17.246-63.595-54.972-63.595-97.01 0-32.337 17.246-66.83 48.505-90.543 15.09-10.78 43.116-18.324 64.674-17.247 52.816 2.156 81.92 44.194 88.387 54.973 6.467 12.935 30.18 21.558 46.35 12.935 21.557-12.935 22.635-32.337 14.012-50.661-39.882-63.596-100.244-88.388-153.061-88.388-48.505 0-87.31 16.169-120.724 44.194-39.882 33.415-59.284 89.465-59.284 134.737s17.246 87.31 46.349 118.568C72.219 362.173 11.857 458.105 11.857 565.895v54.972c0 19.402 16.168 35.57 35.57 35.57s35.57-16.168 35.57-35.57v-54.972c0-98.089 65.752-182.164 160.607-205.878 10.78-2.156 21.558-8.623 26.948-20.48z m579.907-25.87c29.103-32.336 46.35-74.374 46.35-118.568-1.078-80.842-56.051-151.983-130.426-172.463-22.636-5.39-43.116-7.545-63.596-5.39-70.063 8.623-107.79 40.96-136.892 81.92-9.701 12.935-9.701 24.792-8.623 33.415 3.233 15.09 17.246 23.714 25.87 25.87 16.167 5.389 34.492-7.546 37.725-14.013s6.468-9.701 11.857-17.246c18.324-24.792 49.583-40.96 82.998-40.96 46.35-2.156 104.556 35.57 106.712 100.244 1.078 56.05-22.636 86.231-61.44 103.478-4.312 2.155-7.546 4.311-10.78 7.545 0 0-1.077 0-1.077 1.078-2.156 2.156-4.312 5.39-5.39 8.623 0 3.234 0 4.312-1.078 5.39 0 1.077-1.077 1.077-1.077 2.155v4.312c0 3.234-1.078 5.39 0 8.623 0 1.078 1.077 3.234 1.077 4.312 0 2.155 0 4.311 1.078 6.467 5.39 11.857 16.169 18.324 28.026 20.48 94.854 23.714 160.606 107.79 160.606 205.878v54.972c0 19.403 16.168 35.571 35.57 35.571s35.571-16.168 35.571-35.57v-54.973c-1.078-108.868-61.44-203.722-153.061-251.15z" fill="#343844" p-id="5355"></path>
</svg>
