<?xml version="1.0" standalone="no"?><!DOCTYPE svg PUBLIC "-//W3C//DTD SVG 1.1//EN" "http://www.w3.org/Graphics/SVG/1.1/DTD/svg11.dtd"><svg class="icon" width="200px" height="200.00px" viewBox="0 0 1024 1024" version="1.1" xmlns="http://www.w3.org/2000/svg"><path fill="#bfbfbf" d="M640.783996 0l319.99999 298.015991V927.359971A96.703997 96.703997 0 0 1 863.999989 1023.999968H161.504011a96.735997 96.735997 0 0 1-96.703997-96.639997V96.719997A96.735997 96.735997 0 0 1 161.504011 0z m255.999992 927.359971V369.711988H728.575993a144.175995 144.175995 0 0 1-143.999995-143.919995V64.351998L161.504011 63.999998A32.751999 32.751999 0 0 0 128.800012 96.719997V927.359971a32.703999 32.703999 0 0 0 32.703999 32.639999H863.999989a32.687999 32.687999 0 0 0 32.703999-32.671999zM648.591996 94.735997v131.055996a79.999998 79.999998 0 0 0 79.999997 79.999997H875.199989L648.591996 94.735997zM657.999995 385.599988c25.775999-7.04 46.767999 7.152 46.767999 31.519999v296.271991c0 38.399999-40.959999 74.191998-91.503997 79.999997s-91.519997-18.415999-91.519997-56.927998 40.959999-74.191998 91.519997-79.999998c34.367999-3.904 53.551998 6.528 53.551998 6.528v-145.519995c0-18.239999-20.799999-11.584-20.799999-11.584L457.488002 561.599982s-21.631999 7.36-21.632 24.432v181.087994c0 38.399999-37.055999 73.871998-87.615997 80.591998s-91.455997-16.687999-91.455997-55.071999 40.895999-75.023998 91.455997-81.871997c34.367999-4.544 49.855998 5.312 49.855999 5.312V503.839984c0-24.367999 20.927999-49.759998 46.719998-56.735998L657.999995 385.599988z"  /></svg>