<?xml version="1.0" standalone="no"?><!DOCTYPE svg PUBLIC "-//W3C//DTD SVG 1.1//EN" "http://www.w3.org/Graphics/SVG/1.1/DTD/svg11.dtd"><svg class="icon" width="200px" height="200.00px" viewBox="0 0 1024 1024" version="1.1" xmlns="http://www.w3.org/2000/svg"><path fill="#42d47f" d="M485 202.3l312.5 115.3L538.8 406 227.7 277.7 485 202.3m1.8-52.6l-409.7 120 460 189.7 409.7-140-460-169.7zM696 480.6L797.5 518l-258.7 88.4-311.1-128.3 100.5-29.5-73.9-30.5-177.1 52 460 189.7 409.7-140L771 454.9l-75 25.7z m0 214.5l101.5 37.5L538.8 821 227.7 692.7l100.5-29.5-73.9-30.5-177.1 52 460 189.7 409.7-140L771 669.5l-75 25.6z"  /></svg>