<?xml version="1.0" standalone="no"?><!DOCTYPE svg PUBLIC "-//W3C//DTD SVG 1.1//EN" "http://www.w3.org/Graphics/SVG/1.1/DTD/svg11.dtd"><svg t="1577673707894" class="icon" viewBox="0 0 1024 1024" version="1.1" xmlns="http://www.w3.org/2000/svg" p-id="5699" xmlns:xlink="http://www.w3.org/1999/xlink" width="80" height="80"><defs><style type="text/css"></style></defs><path d="M932.382884 696.255491 118.884133 696.255491l0.004093-393.944234c0-14.145162-11.466146-25.612331-25.611308-25.612331-0.001023 0 0 0 0 0-14.144138 0-25.611308 11.467169-25.611308 25.611308l-0.005117 419.556565c0 6.792707 2.698458 13.307074 7.500834 18.10945 4.803399 4.803399 11.317767 7.501858 18.110473 7.501858l839.111083 0c14.145162 0 25.611308-11.466146 25.611308-25.611308S946.529069 696.255491 932.382884 696.255491zM214.305389 670.289096c36.166711 0 65.589834-29.433356 65.589834-65.611324 0-5.63944-0.716314-11.114129-2.060939-16.340153l135.732357-106.426915c11.326976 8.56098 25.28078 13.264095 39.533388 13.264095 7.534604 0 14.871709-1.270946 21.773909-3.697205l51.455929 64.851007c-5.38873 9.625218-8.296967 20.580734-8.296967 32.033577 0 36.165688 29.42517 65.588811 65.593927 65.588811 36.164664 0 65.585741-29.423123 65.585741-65.588811 0-5.127787-0.610914-10.112312-1.728364-14.903431L827.960627 405.502477c8.271384 3.76986 17.448394 5.887081 27.115568 5.887081 36.155455 0 65.569368-29.423123 65.569368-65.588811 0-36.167734-29.413913-65.591881-65.569368-65.591881-36.177967 0-65.609277 29.424146-65.609277 65.591881 0 7.717775 1.349741 15.122419 3.810792 22.005176L616.949772 531.898189c-9.773598-5.791913-21.164019-9.130961-33.323966-9.130961-5.688559 0-11.336186 0.760317-16.788361 2.201132l-54.073546-68.1481c3.859911-8.446369 5.906523-17.686824 5.906523-27.238364 0-36.177967-29.424146-65.6103-65.591881-65.6103-36.166711 0-65.589834 29.432333-65.589834 65.6103 0 2.477424 0.13917 4.933359 0.409322 7.360641L246.68382 547.671431c-9.56075-5.451152-20.60734-8.584516-32.378431-8.584516-36.177967 0-65.6103 29.424146-65.6103 65.590857C148.695089 640.85574 178.127422 670.289096 214.305389 670.289096zM855.076194 331.432505c7.910157 0 14.346753 6.445806 14.346753 14.369266 0 7.921413-6.435573 14.366196-14.346753 14.366196-7.93267 0-14.386662-6.444782-14.386662-14.366196C840.689532 337.878311 847.143525 331.432505 855.076194 331.432505zM574.635037 577.162092c0.192382-0.145309 0.393973-0.273223 0.583285-0.423649 0.119727-0.095167 0.233314-0.195451 0.350994-0.292666 1.765203-1.209548 4.454452-2.453888 8.05649-2.453888 7.919367 0 14.362102 6.446829 14.362102 14.370289 0 7.92039-6.442736 14.365172-14.362102 14.365172-7.92346 0-14.370289-6.444782-14.370289-14.365172C569.255517 583.981405 571.201845 579.943438 574.635037 577.162092zM453.078541 415.195234c7.922437 0 14.369266 6.453992 14.369266 14.387685 0 3.764744-1.457188 7.317663-4.093225 10.036587-0.045025 0.044002-0.092098 0.085958-0.137123 0.130983-2.701528 2.708692-6.294356 4.200672-10.117428 4.200672-4.193509 0-7.201006-1.716084-8.985652-3.154853-0.00307-0.002047-0.00614-0.004093-0.00921-0.00614-0.004093-0.00307-0.008186-0.007163-0.01228-0.011256-3.418866-2.750647-5.379521-6.831592-5.379521-11.195993C438.712345 421.649226 445.157127 415.195234 453.078541 415.195234zM214.305389 590.30953c7.921413 0 14.366196 6.445806 14.366196 14.367219 0 7.933693-6.444782 14.388708-14.366196 14.388708-7.93267 0-14.387685-6.455015-14.387685-14.388708C199.917704 596.755336 206.371696 590.30953 214.305389 590.30953z" p-id="5700" fill="#CDCDCD"></path></svg>