<?xml version="1.0" standalone="no"?>
<!DOCTYPE svg PUBLIC "-//W3C//DTD SVG 1.1//EN" "http://www.w3.org/Graphics/SVG/1.1/DTD/svg11.dtd">
<svg class="" data-icon="calendar" width="1em" height="1em" fill="currentColor" aria-hidden="true" viewBox="0 0 1024 1024">
  <path d="M449.024 470.016H137.024a32 32 0 0 1-32-32V145.984a32 32 0 0 1 32-32h312a32 32 0 0 1 32 32v292.032a32 32 0 0 1-32 32z m-280-64h248V177.984H169.024v228.032zM886.528 209.664H600.512a32 32 0 0 1 0-64h286.016a32 32 0 0 1 0 64zM886.528 327.68H600.512a32 32 0 0 1 0-64h286.016a32 32 0 0 1 0 64zM886.528 438.336H600.512a32 32 0 0 1 0-64h286.016a32 32 0 0 1 0 64zM449.024 910.016H137.024a32 32 0 0 1-32-32V585.984a32 32 0 0 1 32-32h312a32 32 0 0 1 32 32v292.032a32 32 0 0 1-32 32z m-280-64h248V617.984H169.024v228.032zM886.528 649.664H600.512a32 32 0 0 1 0-64h286.016a32 32 0 0 1 0 64zM886.528 767.68H600.512a32 32 0 0 1 0-64h286.016a32 32 0 0 1 0 64zM886.528 878.336H600.512a32 32 0 0 1 0-64h286.016a32 32 0 0 1 0 64z" p-id="3876"></path>
</svg>
